{"glyphs":{"0":{"ha":1153,"x_min":92,"x_max":1195,"o":"m 178 780 l 371 949 l 1049 949 l 1195 780 l 1109 170 l 916 0 l 237 0 l 92 170 l 178 780 m 899 610 l 537 203 l 774 203 l 852 271 l 899 610 m 387 339 l 749 746 l 512 746 l 435 678 l 387 339 z "},"1":{"ha":543,"x_min":173,"x_max":608,"o":"m 269 949 l 608 949 l 475 0 l 203 0 l 309 746 l 173 746 l 269 949 z "},"2":{"ha":1153,"x_min":68,"x_max":1195,"o":"m 68 0 l 125 407 l 318 576 l 827 576 l 905 644 l 909 678 l 851 746 l 173 746 l 269 949 l 1049 949 l 1195 780 l 1161 543 l 968 373 l 459 373 l 382 305 l 368 203 l 1114 203 l 1085 0 l 68 0 z "},"3":{"ha":1153,"x_min":96,"x_max":1195,"o":"m 96 203 l 774 203 l 852 271 l 857 305 l 798 373 l 120 373 l 149 576 l 827 576 l 905 644 l 909 678 l 851 746 l 173 746 l 269 949 l 1049 949 l 1195 780 l 1166 576 l 1050 475 l 1137 373 l 1109 170 l 916 0 l 136 0 l 96 203 z "},"4":{"ha":1153,"x_min":144,"x_max":1219,"o":"m 814 0 l 866 373 l 290 373 l 144 543 l 201 949 l 473 949 l 430 644 l 488 576 l 895 576 l 947 949 l 1219 949 l 1085 0 l 814 0 z "},"5":{"ha":1153,"x_min":96,"x_max":1219,"o":"m 1219 949 l 1190 746 l 444 746 l 425 610 l 1001 610 l 1147 441 l 1109 170 l 916 0 l 136 0 l 96 203 l 774 203 l 852 271 l 861 339 l 803 407 l 125 407 l 201 949 l 1219 949 z "},"6":{"ha":1153,"x_min":92,"x_max":1190,"o":"m 861 339 l 803 407 l 464 407 l 492 610 l 1001 610 l 1147 441 l 1109 170 l 916 0 l 237 0 l 92 170 l 178 780 l 371 949 l 1151 949 l 1190 746 l 512 746 l 435 678 l 377 271 l 435 203 l 774 203 l 852 271 l 861 339 z "},"7":{"ha":1153,"x_min":68,"x_max":1219,"o":"m 68 0 l 851 746 l 173 746 l 269 949 l 1219 949 l 1190 746 l 407 0 l 68 0 z "},"8":{"ha":1153,"x_min":92,"x_max":1195,"o":"m 92 170 l 120 373 l 236 475 l 149 576 l 178 780 l 371 949 l 1049 949 l 1195 780 l 1166 576 l 1050 475 l 1137 373 l 1109 170 l 916 0 l 237 0 l 92 170 m 512 746 l 435 678 l 430 644 l 488 576 l 827 576 l 905 644 l 909 678 l 851 746 l 512 746 m 459 373 l 382 305 l 377 271 l 435 203 l 774 203 l 852 271 l 857 305 l 798 373 l 459 373 z "},"9":{"ha":1153,"x_min":96,"x_max":1195,"o":"m 425 610 l 483 543 l 822 543 l 793 339 l 285 339 l 139 509 l 178 780 l 371 949 l 1049 949 l 1195 780 l 1109 170 l 916 0 l 136 0 l 96 203 l 774 203 l 852 271 l 909 678 l 851 746 l 512 746 l 435 678 l 425 610 z "}," ":{"ha":543,"x_min":0,"x_max":0,"o":""},"!":{"ha":407,"x_min":68,"x_max":473,"o":"m 68 0 l 96 203 l 368 203 l 339 0 l 68 0 m 115 339 l 201 949 l 473 949 l 387 339 l 115 339 z "},"\"":{"ha":814,"x_min":153,"x_max":880,"o":"m 473 949 l 430 644 l 153 610 l 201 949 l 473 949 m 880 949 l 837 644 l 560 610 l 608 949 l 880 949 z "},"#":{"ha":1289,"x_min":96,"x_max":1326,"o":"m 812 949 l 725 746 l 928 746 l 1015 949 l 1286 949 l 1200 746 l 1326 746 l 1297 543 l 1112 543 l 1048 407 l 1278 407 l 1249 203 l 968 203 l 882 0 l 610 0 l 696 203 l 493 203 l 407 0 l 136 0 l 222 203 l 96 203 l 125 407 l 302 407 l 366 543 l 144 543 l 173 746 l 454 746 l 541 949 l 812 949 m 574 407 l 777 407 l 840 543 l 637 543 l 574 407 z "},"$":{"ha":1153,"x_min":96,"x_max":1190,"o":"m 644 0 l 625 -136 l 490 -136 l 509 0 l 136 0 l 96 203 l 537 203 l 561 373 l 290 373 l 144 543 l 178 780 l 371 949 l 642 949 l 661 1085 l 797 1085 l 778 949 l 1151 949 l 1190 746 l 749 746 l 725 576 l 996 576 l 1142 407 l 1109 170 l 916 0 l 644 0 m 488 576 l 589 576 l 614 746 l 512 746 l 435 678 l 430 644 l 488 576 m 696 373 l 673 203 l 774 203 l 852 271 l 857 305 l 798 373 l 696 373 z "},"%":{"ha":1424,"x_min":149,"x_max":1409,"o":"m 371 949 l 574 949 l 720 780 l 691 576 l 498 407 l 294 407 l 149 576 l 178 780 l 371 949 m 1059 543 l 1263 543 l 1409 373 l 1380 170 l 1187 0 l 983 0 l 838 170 l 866 373 l 1059 543 m 203 0 l 1083 949 l 1354 949 l 475 0 l 203 0 m 1103 373 l 1026 305 l 1017 237 l 1075 170 l 1143 170 l 1220 237 l 1230 305 l 1171 373 l 1103 373 m 415 780 l 338 712 l 328 644 l 386 576 l 454 576 l 532 644 l 541 712 l 483 780 l 415 780 z "},"&":{"ha":1153,"x_min":92,"x_max":1161,"o":"m 852 271 l 890 543 l 1161 543 l 1109 170 l 916 0 l 237 0 l 92 170 l 120 373 l 236 475 l 149 576 l 178 780 l 371 949 l 1015 949 l 1055 746 l 512 746 l 435 678 l 430 644 l 488 576 l 759 576 l 730 373 l 459 373 l 382 305 l 377 271 l 435 203 l 774 203 l 852 271 z "},"'":{"ha":407,"x_min":153,"x_max":473,"o":"m 473 949 l 430 644 l 153 610 l 201 949 l 473 949 z "},"(":{"ha":610,"x_min":92,"x_max":648,"o":"m 377 271 l 435 203 l 571 203 l 475 0 l 237 0 l 92 170 l 178 780 l 371 949 l 608 949 l 648 746 l 512 746 l 435 678 l 377 271 z "},")":{"ha":610,"x_min":96,"x_max":652,"o":"m 367 678 l 309 746 l 173 746 l 269 949 l 507 949 l 652 780 l 566 170 l 373 0 l 136 0 l 96 203 l 232 203 l 309 271 l 367 678 z "},"*":{"ha":721,"x_min":155,"x_max":766,"o":"m 766 804 l 618 712 l 741 621 l 633 503 l 527 583 l 511 475 l 342 475 l 357 582 l 229 503 l 155 621 l 302 712 l 181 804 l 288 922 l 394 842 l 409 949 l 578 949 l 563 842 l 692 922 l 766 804 z "},"+":{"ha":882,"x_min":120,"x_max":895,"o":"m 686 780 l 657 576 l 895 576 l 866 373 l 629 373 l 600 170 l 329 170 l 357 373 l 120 373 l 149 576 l 386 576 l 415 780 l 686 780 z "},",":{"ha":407,"x_min":39,"x_max":358,"o":"m 358 136 l 315 -170 l 39 -203 l 87 136 l 358 136 z "},"-":{"ha":746,"x_min":120,"x_max":759,"o":"m 149 576 l 759 576 l 730 373 l 120 373 l 149 576 z "},".":{"ha":407,"x_min":68,"x_max":368,"o":"m 368 203 l 339 0 l 68 0 l 96 203 l 368 203 z "},"/":{"ha":746,"x_min":68,"x_max":812,"o":"m 812 949 l 353 0 l 68 0 l 527 949 l 812 949 z "},":":{"ha":407,"x_min":68,"x_max":444,"o":"m 368 203 l 339 0 l 68 0 l 96 203 l 368 203 m 444 746 l 415 543 l 144 543 l 173 746 l 444 746 z "},";":{"ha":407,"x_min":39,"x_max":444,"o":"m 358 136 l 315 -170 l 39 -203 l 87 136 l 358 136 m 444 746 l 415 543 l 144 543 l 173 746 l 444 746 z "},"<":{"ha":746,"x_min":115,"x_max":812,"o":"m 812 949 l 770 658 l 426 475 l 719 292 l 678 0 l 115 339 l 153 610 l 812 949 z "},"=":{"ha":746,"x_min":94,"x_max":785,"o":"m 175 763 l 785 763 l 757 559 l 146 559 l 175 763 m 123 390 l 733 390 l 705 186 l 94 186 l 123 390 z "},">":{"ha":746,"x_min":68,"x_max":764,"o":"m 68 0 l 109 292 l 453 475 l 160 658 l 201 949 l 764 610 l 726 339 l 68 0 z "},"?":{"ha":1153,"x_min":173,"x_max":1195,"o":"m 319 339 l 328 407 l 522 576 l 827 576 l 905 644 l 909 678 l 851 746 l 173 746 l 269 949 l 1049 949 l 1195 780 l 1161 543 l 968 373 l 629 373 l 590 339 l 319 339 m 571 203 l 543 0 l 271 0 l 300 203 l 571 203 z "},"@":{"ha":1424,"x_min":82,"x_max":1476,"o":"m 1240 136 l 1143 -68 l 228 -68 l 82 102 l 187 848 l 380 1017 l 1330 1017 l 1476 848 l 1413 407 l 1220 237 l 800 237 l 850 597 l 783 597 l 736 556 l 712 387 l 741 353 l 782 353 l 766 237 l 610 237 l 522 339 l 560 610 l 677 712 l 1050 712 l 1000 359 l 1067 359 l 1145 427 l 1190 746 l 1132 814 l 522 814 l 444 746 l 368 203 l 426 136 l 1240 136 z "},"A":{"ha":1153,"x_min":68,"x_max":1190,"o":"m 173 746 l 615 949 l 805 949 l 1190 746 l 1085 0 l 814 0 l 857 305 l 450 305 l 478 509 l 885 509 l 901 624 l 713 732 l 646 732 l 427 624 l 339 0 l 68 0 l 173 746 z "},"B":{"ha":1153,"x_min":68,"x_max":1175,"o":"m 68 0 l 201 949 l 1029 949 l 1175 780 l 1145 576 l 1041 485 l 1137 373 l 1109 170 l 916 0 l 68 0 m 444 746 l 368 203 l 774 203 l 852 271 l 857 305 l 798 373 l 459 373 l 488 576 l 806 576 l 884 644 l 889 678 l 831 746 l 444 746 z "},"C":{"ha":1153,"x_min":92,"x_max":1190,"o":"m 377 271 l 435 203 l 1114 203 l 1017 0 l 237 0 l 92 170 l 178 780 l 371 949 l 1151 949 l 1190 746 l 512 746 l 435 678 l 377 271 z "},"D":{"ha":1153,"x_min":68,"x_max":1195,"o":"m 201 949 l 1049 949 l 1195 780 l 1109 170 l 916 0 l 68 0 l 201 949 m 444 746 l 369 210 l 776 210 l 853 278 l 909 678 l 851 746 l 444 746 z "},"E":{"ha":1153,"x_min":92,"x_max":1190,"o":"m 1166 576 l 1137 373 l 391 373 l 377 271 l 435 203 l 1114 203 l 1017 0 l 237 0 l 92 170 l 178 780 l 371 949 l 1151 949 l 1190 746 l 512 746 l 435 678 l 420 576 l 1166 576 z "},"F":{"ha":1153,"x_min":68,"x_max":1190,"o":"m 1166 576 l 1137 373 l 391 373 l 339 0 l 68 0 l 178 780 l 371 949 l 1151 949 l 1190 746 l 512 746 l 435 678 l 420 576 l 1166 576 z "},"G":{"ha":1153,"x_min":92,"x_max":1190,"o":"m 866 373 l 595 373 l 623 576 l 1166 577 l 1109 170 l 916 0 l 237 0 l 92 170 l 178 780 l 371 949 l 1151 949 l 1190 746 l 512 746 l 435 678 l 377 271 l 435 203 l 774 203 l 852 271 l 866 373 z "},"H":{"ha":1153,"x_min":68,"x_max":1219,"o":"m 201 949 l 473 949 l 420 576 l 895 576 l 947 949 l 1219 949 l 1085 0 l 814 0 l 866 373 l 391 373 l 339 0 l 68 0 l 201 949 z "},"I":{"ha":407,"x_min":68,"x_max":473,"o":"m 473 949 l 339 0 l 68 0 l 201 949 l 473 949 z "},"J":{"ha":1153,"x_min":96,"x_max":1219,"o":"m 947 949 l 1219 949 l 1109 170 l 916 0 l 136 0 l 96 203 l 774 203 l 852 271 l 947 949 z "},"K":{"ha":1153,"x_min":68,"x_max":1219,"o":"m 473 949 l 420 576 l 691 576 l 934 949 l 1219 949 l 976 576 l 996 576 l 1142 407 l 1085 0 l 814 0 l 857 305 l 798 373 l 391 373 l 339 0 l 68 0 l 201 949 l 473 949 z "},"L":{"ha":1153,"x_min":92,"x_max":1114,"o":"m 377 271 l 435 203 l 1114 203 l 1017 0 l 237 0 l 92 170 l 201 949 l 473 949 l 377 271 z "},"M":{"ha":1356,"x_min":68,"x_max":1398,"o":"m 1253 949 l 1398 780 l 1289 0 l 1017 0 l 1113 678 l 1055 746 l 919 746 l 814 0 l 543 0 l 648 746 l 512 746 l 435 678 l 339 0 l 68 0 l 178 780 l 371 949 l 1253 949 z "},"N":{"ha":1153,"x_min":68,"x_max":1195,"o":"m 512 746 l 435 678 l 339 0 l 68 0 l 178 780 l 371 949 l 1049 949 l 1195 780 l 1085 0 l 814 0 l 909 678 l 851 746 l 512 746 z "},"O":{"ha":1153,"x_min":92,"x_max":1195,"o":"m 178 780 l 371 949 l 1049 949 l 1195 780 l 1109 170 l 916 0 l 237 0 l 92 170 l 178 780 m 512 746 l 435 678 l 377 271 l 435 203 l 774 203 l 852 271 l 909 678 l 851 746 l 512 746 z "},"P":{"ha":1153,"x_min":68,"x_max":1195,"o":"m 1049 949 l 1195 780 l 1152 475 l 958 305 l 450 305 l 478 509 l 817 509 l 895 576 l 909 678 l 851 746 l 444 746 l 339 0 l 68 0 l 201 949 l 1049 949 z "},"Q":{"ha":1153,"x_min":92,"x_max":1195,"o":"m 178 780 l 371 949 l 1049 949 l 1195 780 l 1109 170 l 916 0 l 833 0 l 863 -136 l 625 -136 l 595 0 l 237 0 l 92 170 l 178 780 m 760 339 l 787 214 l 852 271 l 909 678 l 851 746 l 512 746 l 435 678 l 377 271 l 435 203 l 551 203 l 522 339 l 760 339 z "},"R":{"ha":1153,"x_min":68,"x_max":1195,"o":"m 1049 949 l 1195 780 l 1156 509 l 1040 407 l 1128 305 l 1085 0 l 814 0 l 847 237 l 789 305 l 450 305 l 478 509 l 817 509 l 895 576 l 909 678 l 851 746 l 444 746 l 339 0 l 68 0 l 201 949 l 1049 949 z "},"S":{"ha":1153,"x_min":96,"x_max":1190,"o":"m 136 0 l 96 203 l 774 203 l 852 271 l 857 305 l 798 373 l 290 373 l 144 543 l 178 780 l 371 949 l 1151 949 l 1190 746 l 512 746 l 435 678 l 430 644 l 488 576 l 996 576 l 1142 407 l 1109 170 l 916 0 l 136 0 z "},"T":{"ha":1153,"x_min":173,"x_max":1219,"o":"m 1219 949 l 1190 746 l 817 746 l 712 0 l 441 0 l 546 746 l 173 746 l 201 949 l 1219 949 z "},"U":{"ha":1153,"x_min":92,"x_max":1219,"o":"m 774 203 l 852 271 l 947 949 l 1219 949 l 1109 170 l 916 0 l 237 0 l 92 170 l 201 949 l 473 949 l 377 271 l 435 203 l 774 203 z "},"V":{"ha":1153,"x_min":96,"x_max":1219,"o":"m 1114 203 l 671 0 l 481 0 l 96 203 l 201 949 l 473 949 l 385 326 l 573 217 l 641 217 l 859 326 l 947 949 l 1219 949 l 1114 203 z "},"W":{"ha":1356,"x_min":92,"x_max":1422,"o":"m 237 0 l 92 170 l 201 949 l 473 949 l 377 271 l 435 203 l 571 203 l 676 949 l 947 949 l 842 203 l 978 203 l 1055 271 l 1151 949 l 1422 949 l 1312 170 l 1119 0 l 237 0 z "},"X":{"ha":1153,"x_min":68,"x_max":1219,"o":"m 68 0 l 492 473 l 201 949 l 501 949 l 671 673 l 919 949 l 1219 949 l 794 473 l 1085 0 l 781 0 l 614 271 l 372 0 l 68 0 z "},"Y":{"ha":1153,"x_min":139,"x_max":1219,"o":"m 201 949 l 473 949 l 427 624 l 616 522 l 684 522 l 901 624 l 947 949 l 1219 949 l 1156 509 l 757 319 l 712 0 l 441 0 l 486 319 l 139 509 l 201 949 z "},"Z":{"ha":1153,"x_min":68,"x_max":1219,"o":"m 68 0 l 96 203 l 817 746 l 173 746 l 201 949 l 1219 949 l 1190 746 l 469 203 l 1114 203 l 1085 0 l 68 0 z "},"[":{"ha":610,"x_min":68,"x_max":648,"o":"m 368 203 l 571 203 l 475 0 l 68 0 l 201 949 l 608 949 l 648 746 l 444 746 l 368 203 z "},"\\":{"ha":746,"x_min":201,"x_max":678,"o":"m 486 949 l 678 0 l 393 0 l 201 949 l 486 949 z "},"]":{"ha":610,"x_min":96,"x_max":676,"o":"m 376 746 l 173 746 l 269 949 l 676 949 l 543 0 l 136 0 l 96 203 l 300 203 l 376 746 z "},"^":{"ha":1017,"x_min":144,"x_max":1025,"o":"m 832 949 l 1025 543 l 734 543 l 623 814 l 435 543 l 144 543 l 452 949 l 832 949 z "},"_":{"ha":610,"x_min":-38,"x_max":596,"o":"m -14 -102 l 596 -102 l 572 -271 l -38 -271 l -14 -102 z "},"`":{"ha":543,"x_min":216,"x_max":594,"o":"m 494 1051 l 594 848 l 316 848 l 216 1051 l 494 1051 z "},"a":{"ha":1017,"x_min":92,"x_max":1030,"o":"m 92 170 l 111 305 l 304 475 l 677 475 l 648 271 l 445 271 l 406 237 l 435 203 l 639 203 l 716 271 l 745 475 l 686 543 l 212 543 l 309 746 l 885 746 l 1030 576 l 973 170 l 780 0 l 237 0 l 92 170 z "},"b":{"ha":1017,"x_min":92,"x_max":1030,"o":"m 716 271 l 745 475 l 686 543 l 483 543 l 512 746 l 885 746 l 1030 576 l 973 170 l 780 0 l 237 0 l 92 170 l 201 949 l 473 949 l 377 271 l 435 203 l 639 203 l 716 271 z "},"c":{"ha":1017,"x_min":92,"x_max":1025,"o":"m 1025 543 l 483 543 l 406 475 l 377 271 l 435 203 l 978 203 l 882 0 l 237 0 l 92 170 l 149 576 l 342 746 l 987 746 l 1025 543 z "},"d":{"ha":1017,"x_min":92,"x_max":1083,"o":"m 92 170 l 149 576 l 342 746 l 715 746 l 686 543 l 483 543 l 406 475 l 377 271 l 435 203 l 639 203 l 716 271 l 812 949 l 1083 949 l 973 170 l 780 0 l 237 0 l 92 170 z "},"e":{"ha":1017,"x_min":92,"x_max":1030,"o":"m 1030 576 l 1011 441 l 818 271 l 445 271 l 473 475 l 677 475 l 715 509 l 686 543 l 483 543 l 406 475 l 377 271 l 435 203 l 910 203 l 814 0 l 237 0 l 92 170 l 149 576 l 342 746 l 885 746 l 1030 576 z "},"f":{"ha":814,"x_min":134,"x_max":851,"o":"m 541 475 l 475 0 l 203 0 l 270 475 l 134 475 l 163 678 l 299 678 l 313 780 l 507 949 l 812 949 l 851 746 l 648 746 l 570 678 l 842 678 l 812 475 l 541 475 z "},"g":{"ha":1017,"x_min":130,"x_max":1030,"o":"m 342 746 l 885 746 l 1030 576 l 973 170 l 780 0 l 203 0 l 164 203 l 639 203 l 716 271 l 745 475 l 686 543 l 483 543 l 444 509 l 473 475 l 677 475 l 648 271 l 275 271 l 130 441 l 149 576 l 342 746 z "},"h":{"ha":1017,"x_min":68,"x_max":1030,"o":"m 473 949 l 444 746 l 885 746 l 1030 576 l 949 0 l 678 0 l 745 475 l 686 543 l 415 543 l 339 0 l 68 0 l 201 949 l 473 949 z "},"i":{"ha":407,"x_min":68,"x_max":473,"o":"m 425 610 l 339 0 l 68 0 l 153 610 l 425 610 m 473 949 l 444 746 l 173 746 l 201 949 l 473 949 z "},"j":{"ha":814,"x_min":96,"x_max":880,"o":"m 96 203 l 435 203 l 513 271 l 560 610 l 831 610 l 770 170 l 576 0 l 136 0 l 96 203 m 880 949 l 851 746 l 580 746 l 608 949 l 880 949 z "},"k":{"ha":1017,"x_min":68,"x_max":1055,"o":"m 473 949 l 410 509 l 546 509 l 770 746 l 1055 746 l 831 509 l 851 509 l 997 339 l 949 0 l 678 0 l 711 237 l 653 305 l 382 305 l 339 0 l 68 0 l 201 949 l 473 949 z "},"l":{"ha":407,"x_min":68,"x_max":473,"o":"m 473 949 l 339 0 l 68 0 l 201 949 l 473 949 z "},"m":{"ha":1356,"x_min":68,"x_max":1369,"o":"m 1224 746 l 1369 576 l 1289 0 l 1017 0 l 1084 475 l 1025 543 l 890 543 l 814 0 l 543 0 l 618 543 l 483 543 l 406 475 l 339 0 l 68 0 l 149 576 l 342 746 l 1224 746 z "},"n":{"ha":1017,"x_min":68,"x_max":1030,"o":"m 406 475 l 339 0 l 68 0 l 149 576 l 342 746 l 885 746 l 1030 576 l 949 0 l 678 0 l 745 475 l 686 543 l 483 543 l 406 475 z "},"o":{"ha":1017,"x_min":92,"x_max":1030,"o":"m 1030 576 l 973 170 l 780 0 l 237 0 l 92 170 l 149 576 l 342 746 l 885 746 l 1030 576 m 406 475 l 377 271 l 435 203 l 639 203 l 716 271 l 745 475 l 686 543 l 483 543 l 406 475 z "},"p":{"ha":1017,"x_min":68,"x_max":1030,"o":"m 1030 576 l 1002 373 l 808 203 l 435 203 l 464 407 l 667 407 l 745 475 l 686 543 l 483 543 l 406 475 l 339 0 l 68 0 l 149 576 l 342 746 l 885 746 l 1030 576 z "},"q":{"ha":1017,"x_min":120,"x_max":1030,"o":"m 342 746 l 885 746 l 1030 576 l 949 0 l 678 0 l 745 475 l 686 543 l 483 543 l 406 475 l 464 407 l 667 407 l 639 203 l 266 203 l 120 373 l 149 576 l 342 746 z "},"r":{"ha":814,"x_min":68,"x_max":822,"o":"m 822 543 l 483 543 l 406 475 l 339 0 l 68 0 l 149 576 l 342 746 l 783 746 l 822 543 z "},"s":{"ha":1017,"x_min":96,"x_max":1025,"o":"m 846 475 l 992 305 l 973 170 l 780 0 l 136 0 l 96 203 l 639 203 l 677 237 l 648 271 l 275 271 l 130 441 l 149 576 l 342 746 l 987 746 l 1025 543 l 483 543 l 444 509 l 473 475 l 846 475 z "},"t":{"ha":814,"x_min":144,"x_max":851,"o":"m 309 746 l 328 882 l 608 949 l 580 746 l 851 746 l 822 543 l 551 543 l 513 271 l 571 203 l 774 203 l 678 0 l 373 0 l 227 170 l 279 543 l 144 543 l 173 746 l 309 746 z "},"u":{"ha":1017,"x_min":92,"x_max":1055,"o":"m 92 170 l 173 746 l 444 746 l 377 271 l 435 203 l 639 203 l 716 271 l 783 746 l 1055 746 l 973 170 l 780 0 l 237 0 l 92 170 z "},"v":{"ha":1017,"x_min":96,"x_max":1055,"o":"m 173 746 l 444 746 l 379 285 l 505 217 l 573 217 l 718 285 l 783 746 l 1055 746 l 978 203 l 604 0 l 414 0 l 96 203 l 173 746 z "},"w":{"ha":1356,"x_min":92,"x_max":1394,"o":"m 237 0 l 92 170 l 173 746 l 444 746 l 377 271 l 435 203 l 571 203 l 648 746 l 919 746 l 842 203 l 978 203 l 1055 271 l 1122 746 l 1394 746 l 1312 170 l 1119 0 l 237 0 z "},"x":{"ha":1017,"x_min":68,"x_max":1055,"o":"m 68 0 l 408 373 l 173 746 l 478 746 l 589 570 l 749 746 l 1055 746 l 713 373 l 949 0 l 644 0 l 533 176 l 373 0 l 68 0 z "},"y":{"ha":1017,"x_min":130,"x_max":1055,"o":"m 973 170 l 780 0 l 203 0 l 164 203 l 639 203 l 716 271 l 275 271 l 130 441 l 173 746 l 444 746 l 415 543 l 473 475 l 745 475 l 783 746 l 1055 746 l 973 170 z "},"z":{"ha":1017,"x_min":68,"x_max":1055,"o":"m 68 0 l 96 203 l 632 543 l 144 543 l 173 746 l 1055 746 l 1025 543 l 490 203 l 978 203 l 949 0 l 68 0 z "},"{":{"ha":949,"x_min":120,"x_max":987,"o":"m 642 949 l 947 949 l 987 746 l 783 746 l 706 678 l 691 576 l 575 475 l 663 373 l 648 271 l 707 203 l 910 203 l 814 0 l 509 0 l 363 170 l 382 305 l 323 373 l 120 373 l 149 576 l 352 576 l 430 644 l 449 780 l 642 949 z "},"|":{"ha":407,"x_min":68,"x_max":473,"o":"m 473 949 l 339 0 l 68 0 l 201 949 l 473 949 z "},"}":{"ha":949,"x_min":96,"x_max":962,"o":"m 441 0 l 136 0 l 96 203 l 300 203 l 377 271 l 391 373 l 507 475 l 420 576 l 435 678 l 376 746 l 173 746 l 269 949 l 574 949 l 720 780 l 701 644 l 759 576 l 962 576 l 934 373 l 730 373 l 653 305 l 634 170 l 441 0 z "},"~":{"ha":1153,"x_min":115,"x_max":1171,"o":"m 130 441 l 323 610 l 675 610 l 763 509 l 851 509 l 890 543 l 899 610 l 1171 610 l 1156 509 l 963 339 l 604 339 l 516 441 l 435 441 l 396 407 l 387 339 l 115 339 l 130 441 z "}," ":{"ha":543,"x_min":0,"x_max":0,"o":""},"¡":{"ha":407,"x_min":68,"x_max":473,"o":"m 473 949 l 444 746 l 173 746 l 201 949 l 473 949 m 425 610 l 339 0 l 68 0 l 153 610 l 425 610 z "},"¢":{"ha":1017,"x_min":120,"x_max":1055,"o":"m 1055 746 l 749 746 l 701 407 l 1006 407 l 910 203 l 673 203 l 654 68 l 518 68 l 537 203 l 266 203 l 120 373 l 178 780 l 371 949 l 642 949 l 661 1085 l 797 1085 l 778 949 l 1015 949 l 1055 746 m 464 407 l 566 407 l 614 746 l 512 746 l 435 678 l 406 475 l 464 407 z "},"£":{"ha":1153,"x_min":68,"x_max":1133,"o":"m 96 203 l 232 203 l 256 373 l 120 373 l 149 576 l 284 576 l 313 780 l 507 949 l 1015 949 l 1055 746 l 648 746 l 570 678 l 555 576 l 895 576 l 866 373 l 527 373 l 503 203 l 774 203 l 852 271 l 861 339 l 1133 339 l 1109 170 l 916 0 l 68 0 l 96 203 z "},"¥":{"ha":1153,"x_min":149,"x_max":1219,"o":"m 201 949 l 473 949 l 436 692 l 625 590 l 693 590 l 911 692 l 947 949 l 1219 949 l 1166 576 l 808 407 l 1040 407 l 1021 271 l 750 271 l 741 203 l 1012 203 l 993 68 l 722 68 l 712 0 l 441 0 l 450 68 l 179 68 l 198 203 l 469 203 l 479 271 l 208 271 l 227 407 l 459 407 l 149 576 l 201 949 z "},"¦":{"ha":407,"x_min":68,"x_max":473,"o":"m 473 949 l 415 543 l 144 543 l 201 949 l 473 949 m 396 407 l 339 0 l 68 0 l 125 407 l 396 407 z "},"¨":{"ha":814,"x_min":187,"x_max":894,"o":"m 487 1051 l 458 848 l 187 848 l 216 1051 l 487 1051 m 894 1051 l 865 848 l 594 848 l 623 1051 l 894 1051 z "},"©":{"ha":1424,"x_min":82,"x_max":1476,"o":"m 187 848 l 380 1017 l 1330 1017 l 1476 848 l 1371 102 l 1177 -68 l 228 -68 l 82 102 l 187 848 m 522 814 l 444 746 l 368 203 l 426 136 l 1036 136 l 1114 203 l 1190 746 l 1132 814 l 522 814 m 1029 563 l 778 563 l 731 522 l 717 420 l 746 387 l 1004 387 l 915 237 l 610 237 l 522 339 l 560 610 l 677 712 l 982 712 l 1029 563 z "},"«":{"ha":882,"x_min":125,"x_max":938,"o":"m 531 882 l 488 576 l 372 475 l 459 373 l 416 68 l 125 407 l 144 543 l 531 882 m 938 882 l 895 576 l 779 475 l 866 373 l 823 68 l 532 407 l 551 543 l 938 882 z "},"¬":{"ha":746,"x_min":120,"x_max":759,"o":"m 149 576 l 759 576 l 702 170 l 431 170 l 459 373 l 120 373 l 149 576 z "},"®":{"ha":1424,"x_min":82,"x_max":1476,"o":"m 948 712 l 1035 610 l 1017 481 l 956 427 l 1002 373 l 982 231 l 799 231 l 808 298 l 773 339 l 705 339 l 691 237 l 508 237 l 575 712 l 948 712 m 737 563 l 726 488 l 801 488 l 840 522 l 805 563 l 737 563 m 187 848 l 380 1017 l 1330 1017 l 1476 848 l 1371 102 l 1177 -68 l 228 -68 l 82 102 l 187 848 m 522 814 l 444 746 l 368 203 l 426 136 l 1036 136 l 1114 203 l 1190 746 l 1132 814 l 522 814 z "},"°":{"ha":678,"x_min":149,"x_max":720,"o":"m 720 780 l 691 576 l 498 407 l 294 407 l 149 576 l 178 780 l 371 949 l 574 949 l 720 780 m 338 712 l 328 644 l 386 576 l 454 576 l 532 644 l 541 712 l 483 780 l 415 780 l 338 712 z "},"±":{"ha":882,"x_min":68,"x_max":905,"o":"m 696 848 l 667 644 l 905 644 l 876 441 l 638 441 l 610 237 l 338 237 l 367 441 l 130 441 l 159 644 l 396 644 l 425 848 l 696 848 m 92 170 l 838 170 l 814 0 l 68 0 l 92 170 z "},"´":{"ha":543,"x_min":187,"x_max":623,"o":"m 623 1051 l 465 848 l 187 848 l 345 1051 l 623 1051 z "},"µ":{"ha":1017,"x_min":68,"x_max":1055,"o":"m 173 746 l 444 746 l 391 373 l 663 373 l 740 441 l 783 746 l 1055 746 l 997 339 l 804 170 l 363 170 l 339 0 l 68 0 l 173 746 z "},"¶":{"ha":1153,"x_min":139,"x_max":1219,"o":"m 1219 949 l 1085 0 l 814 0 l 919 746 l 817 746 l 712 0 l 441 0 l 488 339 l 285 339 l 139 509 l 178 780 l 371 949 l 1219 949 z "},"·":{"ha":407,"x_min":120,"x_max":420,"o":"m 120 373 l 149 576 l 420 576 l 391 373 l 120 373 z "},"¸":{"ha":543,"x_min":25,"x_max":460,"o":"m 25 -305 l 182 -102 l 460 -102 l 303 -305 l 25 -305 z "},"»":{"ha":882,"x_min":77,"x_max":890,"o":"m 484 68 l 527 373 l 643 475 l 555 576 l 599 882 l 890 543 l 871 407 l 484 68 m 77 68 l 120 373 l 236 475 l 149 576 l 192 882 l 483 543 l 464 407 l 77 68 z "},"¿":{"ha":1153,"x_min":92,"x_max":1114,"o":"m 968 610 l 958 543 l 764 373 l 459 373 l 382 305 l 377 271 l 435 203 l 1114 203 l 1017 0 l 237 0 l 92 170 l 125 407 l 319 576 l 658 576 l 696 610 l 968 610 m 715 746 l 744 949 l 1015 949 l 987 746 l 715 746 z "},"À":{"ha":1153,"x_min":68,"x_max":1190,"o":"m 173 746 l 615 949 l 805 949 l 1190 746 l 1085 0 l 814 0 l 857 305 l 450 305 l 478 509 l 885 509 l 901 624 l 713 732 l 646 732 l 427 624 l 339 0 l 68 0 l 173 746 m 760 1255 l 860 1051 l 582 1051 l 481 1255 l 760 1255 z "},"Á":{"ha":1153,"x_min":68,"x_max":1190,"o":"m 173 746 l 615 949 l 805 949 l 1190 746 l 1085 0 l 814 0 l 857 305 l 450 305 l 478 509 l 885 509 l 901 624 l 713 732 l 646 732 l 427 624 l 339 0 l 68 0 l 173 746 m 1024 1255 l 867 1051 l 589 1051 l 746 1255 l 1024 1255 z "},"Â":{"ha":1153,"x_min":68,"x_max":1190,"o":"m 173 746 l 615 949 l 805 949 l 1190 746 l 1085 0 l 814 0 l 857 305 l 450 305 l 478 509 l 885 509 l 901 624 l 713 732 l 646 732 l 427 624 l 339 0 l 68 0 l 173 746 m 972 1322 l 1097 1051 l 806 1051 l 743 1187 l 643 1051 l 351 1051 l 559 1322 l 972 1322 z "},"Ã":{"ha":1153,"x_min":68,"x_max":1190,"o":"m 173 746 l 615 949 l 805 949 l 1190 746 l 1085 0 l 814 0 l 857 305 l 450 305 l 478 509 l 885 509 l 901 624 l 713 732 l 646 732 l 427 624 l 339 0 l 68 0 l 173 746 m 376 1153 l 530 1289 l 747 1289 l 823 1200 l 905 1200 l 928 1221 l 937 1289 l 1120 1289 l 1106 1187 l 951 1051 l 736 1051 l 734 1048 l 659 1139 l 577 1139 l 554 1119 l 545 1051 l 361 1051 l 376 1153 z "},"Ä":{"ha":1153,"x_min":68,"x_max":1190,"o":"m 173 746 l 615 949 l 805 949 l 1190 746 l 1085 0 l 814 0 l 857 305 l 450 305 l 478 509 l 885 509 l 901 624 l 713 732 l 646 732 l 427 624 l 339 0 l 68 0 l 173 746 m 685 1255 l 656 1051 l 385 1051 l 414 1255 l 685 1255 m 1092 1255 l 1063 1051 l 792 1051 l 821 1255 l 1092 1255 z "},"Å":{"ha":1153,"x_min":68,"x_max":1190,"o":"m 173 746 l 615 949 l 805 949 l 1190 746 l 1085 0 l 814 0 l 857 305 l 450 305 l 478 509 l 885 509 l 901 624 l 713 732 l 646 732 l 427 624 l 339 0 l 68 0 l 173 746 m 890 1390 l 978 1289 l 959 1153 l 843 1051 l 606 1051 l 518 1153 l 537 1289 l 653 1390 l 890 1390 m 699 1238 l 694 1204 l 724 1170 l 758 1170 l 796 1204 l 801 1238 l 772 1272 l 739 1272 l 699 1238 z "},"Æ":{"ha":1899,"x_min":68,"x_max":1936,"o":"m 173 746 l 615 949 l 805 949 l 999 846 l 1117 949 l 1897 949 l 1936 746 l 1258 746 l 1181 678 l 1166 576 l 1912 576 l 1883 373 l 1137 373 l 1123 271 l 1181 203 l 1860 203 l 1763 0 l 983 0 l 838 170 l 857 305 l 450 305 l 478 509 l 885 509 l 901 624 l 713 732 l 646 732 l 427 624 l 339 0 l 68 0 l 173 746 z "},"Ç":{"ha":1153,"x_min":92,"x_max":1190,"o":"m 377 271 l 435 203 l 1114 203 l 1017 0 l 237 0 l 92 170 l 178 780 l 371 949 l 1151 949 l 1190 746 l 512 746 l 435 678 l 377 271 m 330 -305 l 488 -102 l 766 -102 l 608 -305 l 330 -305 z "},"È":{"ha":1153,"x_min":92,"x_max":1190,"o":"m 1166 576 l 1137 373 l 391 373 l 377 271 l 435 203 l 1114 203 l 1017 0 l 237 0 l 92 170 l 178 780 l 371 949 l 1151 949 l 1190 746 l 512 746 l 435 678 l 420 576 l 1166 576 m 760 1255 l 860 1051 l 582 1051 l 481 1255 l 760 1255 z "},"É":{"ha":1153,"x_min":92,"x_max":1190,"o":"m 1166 576 l 1137 373 l 391 373 l 377 271 l 435 203 l 1114 203 l 1017 0 l 237 0 l 92 170 l 178 780 l 371 949 l 1151 949 l 1190 746 l 512 746 l 435 678 l 420 576 l 1166 576 m 1024 1255 l 867 1051 l 589 1051 l 746 1255 l 1024 1255 z "},"Ê":{"ha":1153,"x_min":92,"x_max":1190,"o":"m 1166 576 l 1137 373 l 391 373 l 377 271 l 435 203 l 1114 203 l 1017 0 l 237 0 l 92 170 l 178 780 l 371 949 l 1151 949 l 1190 746 l 512 746 l 435 678 l 420 576 l 1166 576 m 972 1322 l 1097 1051 l 806 1051 l 743 1187 l 643 1051 l 351 1051 l 559 1322 l 972 1322 z "},"Ë":{"ha":1153,"x_min":92,"x_max":1190,"o":"m 1166 576 l 1137 373 l 391 373 l 377 271 l 435 203 l 1114 203 l 1017 0 l 237 0 l 92 170 l 178 780 l 371 949 l 1151 949 l 1190 746 l 512 746 l 435 678 l 420 576 l 1166 576 m 685 1255 l 656 1051 l 385 1051 l 414 1255 l 685 1255 m 1092 1255 l 1063 1051 l 792 1051 l 821 1255 l 1092 1255 z "},"Ì":{"ha":543,"x_min":203,"x_max":623,"o":"m 608 949 l 475 0 l 203 0 l 337 949 l 608 949 m 522 1255 l 623 1051 l 345 1051 l 244 1255 l 522 1255 z "},"Í":{"ha":543,"x_min":68,"x_max":651,"o":"m 473 949 l 339 0 l 68 0 l 201 949 l 473 949 m 651 1255 l 494 1051 l 216 1051 l 373 1255 l 651 1255 z "},"Î":{"ha":882,"x_min":216,"x_max":962,"o":"m 710 949 l 576 0 l 305 0 l 439 949 l 710 949 m 837 1322 l 962 1051 l 670 1051 l 608 1187 l 507 1051 l 216 1051 l 423 1322 l 837 1322 z "},"Ï":{"ha":814,"x_min":216,"x_max":922,"o":"m 676 949 l 543 0 l 271 0 l 405 949 l 676 949 m 515 1255 l 487 1051 l 216 1051 l 244 1255 l 515 1255 m 922 1255 l 894 1051 l 623 1051 l 651 1255 l 922 1255 z "},"Ð":{"ha":1289,"x_min":120,"x_max":1331,"o":"m 203 0 l 256 373 l 120 373 l 149 576 l 284 576 l 337 949 l 1185 949 l 1331 780 l 1244 170 l 1051 0 l 203 0 m 910 203 l 987 271 l 1045 678 l 987 746 l 580 746 l 555 576 l 827 576 l 798 373 l 527 373 l 503 203 l 910 203 z "},"Ñ":{"ha":1153,"x_min":68,"x_max":1195,"o":"m 512 746 l 435 678 l 339 0 l 68 0 l 178 780 l 371 949 l 1049 949 l 1195 780 l 1085 0 l 814 0 l 909 678 l 851 746 l 512 746 m 376 1153 l 530 1289 l 747 1289 l 823 1200 l 905 1200 l 928 1221 l 937 1289 l 1120 1289 l 1106 1187 l 951 1051 l 736 1051 l 734 1048 l 659 1139 l 577 1139 l 554 1119 l 545 1051 l 361 1051 l 376 1153 z "},"Ò":{"ha":1153,"x_min":92,"x_max":1195,"o":"m 178 780 l 371 949 l 1049 949 l 1195 780 l 1109 170 l 916 0 l 237 0 l 92 170 l 178 780 m 512 746 l 435 678 l 377 271 l 435 203 l 774 203 l 852 271 l 909 678 l 851 746 l 512 746 m 760 1255 l 860 1051 l 582 1051 l 481 1255 l 760 1255 z "},"Ó":{"ha":1153,"x_min":92,"x_max":1195,"o":"m 178 780 l 371 949 l 1049 949 l 1195 780 l 1109 170 l 916 0 l 237 0 l 92 170 l 178 780 m 512 746 l 435 678 l 377 271 l 435 203 l 774 203 l 852 271 l 909 678 l 851 746 l 512 746 m 1024 1255 l 867 1051 l 589 1051 l 746 1255 l 1024 1255 z "},"Ô":{"ha":1153,"x_min":92,"x_max":1195,"o":"m 178 780 l 371 949 l 1049 949 l 1195 780 l 1109 170 l 916 0 l 237 0 l 92 170 l 178 780 m 512 746 l 435 678 l 377 271 l 435 203 l 774 203 l 852 271 l 909 678 l 851 746 l 512 746 m 972 1322 l 1097 1051 l 806 1051 l 743 1187 l 643 1051 l 351 1051 l 559 1322 l 972 1322 z "},"Õ":{"ha":1153,"x_min":92,"x_max":1195,"o":"m 178 780 l 371 949 l 1049 949 l 1195 780 l 1109 170 l 916 0 l 237 0 l 92 170 l 178 780 m 512 746 l 435 678 l 377 271 l 435 203 l 774 203 l 852 271 l 909 678 l 851 746 l 512 746 m 376 1153 l 530 1289 l 747 1289 l 823 1200 l 905 1200 l 928 1221 l 937 1289 l 1120 1289 l 1106 1187 l 951 1051 l 736 1051 l 734 1048 l 659 1139 l 577 1139 l 554 1119 l 545 1051 l 361 1051 l 376 1153 z "},"Ö":{"ha":1153,"x_min":92,"x_max":1195,"o":"m 178 780 l 371 949 l 1049 949 l 1195 780 l 1109 170 l 916 0 l 237 0 l 92 170 l 178 780 m 512 746 l 435 678 l 377 271 l 435 203 l 774 203 l 852 271 l 909 678 l 851 746 l 512 746 m 685 1255 l 656 1051 l 385 1051 l 414 1255 l 685 1255 m 1092 1255 l 1063 1051 l 792 1051 l 821 1255 l 1092 1255 z "},"×":{"ha":828,"x_min":108,"x_max":852,"o":"m 347 814 l 503 633 l 710 814 l 852 650 l 644 469 l 800 287 l 612 122 l 456 304 l 250 122 l 108 287 l 315 469 l 159 650 l 347 814 z "},"Ø":{"ha":1153,"x_min":92,"x_max":1195,"o":"m 178 780 l 371 949 l 1049 949 l 1195 780 l 1109 170 l 916 0 l 237 0 l 92 170 l 178 780 m 899 610 l 537 203 l 774 203 l 852 271 l 899 610 m 387 339 l 749 746 l 512 746 l 435 678 l 387 339 z "},"Ù":{"ha":1153,"x_min":92,"x_max":1219,"o":"m 774 203 l 852 271 l 947 949 l 1219 949 l 1109 170 l 916 0 l 237 0 l 92 170 l 201 949 l 473 949 l 377 271 l 435 203 l 774 203 m 760 1255 l 860 1051 l 582 1051 l 481 1255 l 760 1255 z "},"Ú":{"ha":1153,"x_min":92,"x_max":1219,"o":"m 774 203 l 852 271 l 947 949 l 1219 949 l 1109 170 l 916 0 l 237 0 l 92 170 l 201 949 l 473 949 l 377 271 l 435 203 l 774 203 m 1024 1255 l 867 1051 l 589 1051 l 746 1255 l 1024 1255 z "},"Û":{"ha":1153,"x_min":92,"x_max":1219,"o":"m 774 203 l 852 271 l 947 949 l 1219 949 l 1109 170 l 916 0 l 237 0 l 92 170 l 201 949 l 473 949 l 377 271 l 435 203 l 774 203 m 972 1322 l 1097 1051 l 806 1051 l 743 1187 l 643 1051 l 351 1051 l 559 1322 l 972 1322 z "},"Ü":{"ha":1153,"x_min":92,"x_max":1219,"o":"m 774 203 l 852 271 l 947 949 l 1219 949 l 1109 170 l 916 0 l 237 0 l 92 170 l 201 949 l 473 949 l 377 271 l 435 203 l 774 203 m 685 1255 l 656 1051 l 385 1051 l 414 1255 l 685 1255 m 1092 1255 l 1063 1051 l 792 1051 l 821 1255 l 1092 1255 z "},"Ý":{"ha":1153,"x_min":139,"x_max":1219,"o":"m 201 949 l 473 949 l 427 624 l 616 522 l 684 522 l 901 624 l 947 949 l 1219 949 l 1156 509 l 757 319 l 712 0 l 441 0 l 486 319 l 139 509 l 201 949 m 1024 1255 l 867 1051 l 589 1051 l 746 1255 l 1024 1255 z "},"Þ":{"ha":1153,"x_min":68,"x_max":1171,"o":"m 473 949 l 449 780 l 1025 780 l 1171 610 l 1133 339 l 939 170 l 431 170 l 459 373 l 798 373 l 876 441 l 885 509 l 827 576 l 420 576 l 339 0 l 68 0 l 201 949 l 473 949 z "},"ß":{"ha":1153,"x_min":68,"x_max":1175,"o":"m 407 0 l 435 203 l 774 203 l 852 271 l 857 305 l 798 373 l 459 373 l 488 576 l 806 576 l 884 644 l 889 678 l 831 746 l 512 746 l 435 678 l 339 0 l 68 0 l 178 780 l 371 949 l 1029 949 l 1175 780 l 1145 576 l 1041 485 l 1137 373 l 1109 170 l 916 0 l 407 0 z "},"à":{"ha":1017,"x_min":92,"x_max":1030,"o":"m 92 170 l 111 305 l 304 475 l 677 475 l 648 271 l 445 271 l 406 237 l 435 203 l 639 203 l 716 271 l 745 475 l 686 543 l 212 543 l 309 746 l 885 746 l 1030 576 l 973 170 l 780 0 l 237 0 l 92 170 m 663 1051 l 764 848 l 486 848 l 385 1051 l 663 1051 z "},"á":{"ha":1017,"x_min":92,"x_max":1030,"o":"m 92 170 l 111 305 l 304 475 l 677 475 l 648 271 l 445 271 l 406 237 l 435 203 l 639 203 l 716 271 l 745 475 l 686 543 l 212 543 l 309 746 l 885 746 l 1030 576 l 973 170 l 780 0 l 237 0 l 92 170 m 928 1051 l 770 848 l 492 848 l 650 1051 l 928 1051 z "},"â":{"ha":1017,"x_min":92,"x_max":1030,"o":"m 92 170 l 111 305 l 304 475 l 677 475 l 648 271 l 445 271 l 406 237 l 435 203 l 639 203 l 716 271 l 745 475 l 686 543 l 212 543 l 309 746 l 885 746 l 1030 576 l 973 170 l 780 0 l 237 0 l 92 170 m 876 1119 l 1001 848 l 709 848 l 647 983 l 547 848 l 255 848 l 463 1119 l 876 1119 z "},"ã":{"ha":1017,"x_min":92,"x_max":1030,"o":"m 92 170 l 111 305 l 304 475 l 677 475 l 648 271 l 445 271 l 406 237 l 435 203 l 639 203 l 716 271 l 745 475 l 686 543 l 212 543 l 309 746 l 885 746 l 1030 576 l 973 170 l 780 0 l 237 0 l 92 170 m 279 949 l 434 1085 l 651 1085 l 727 997 l 808 997 l 831 1017 l 841 1085 l 1024 1085 l 1010 983 l 855 848 l 640 848 l 637 845 l 562 936 l 481 936 l 458 916 l 448 848 l 265 848 l 279 949 z "},"ä":{"ha":1017,"x_min":92,"x_max":1030,"o":"m 92 170 l 111 305 l 304 475 l 677 475 l 648 271 l 445 271 l 406 237 l 435 203 l 639 203 l 716 271 l 745 475 l 686 543 l 212 543 l 309 746 l 885 746 l 1030 576 l 973 170 l 780 0 l 237 0 l 92 170 m 589 1051 l 560 848 l 289 848 l 317 1051 l 589 1051 m 996 1051 l 967 848 l 696 848 l 724 1051 l 996 1051 z "},"å":{"ha":1017,"x_min":92,"x_max":1030,"o":"m 92 170 l 111 305 l 304 475 l 677 475 l 648 271 l 445 271 l 406 237 l 435 203 l 639 203 l 716 271 l 745 475 l 686 543 l 212 543 l 309 746 l 885 746 l 1030 576 l 973 170 l 780 0 l 237 0 l 92 170 m 794 1187 l 882 1085 l 863 949 l 747 848 l 509 848 l 422 949 l 441 1085 l 557 1187 l 794 1187 m 603 1034 l 598 1000 l 627 966 l 661 966 l 700 1000 l 705 1034 l 675 1068 l 642 1068 l 603 1034 z "},"æ":{"ha":1628,"x_min":92,"x_max":1640,"o":"m 92 170 l 111 305 l 304 475 l 677 475 l 648 271 l 445 271 l 406 237 l 435 203 l 639 203 l 716 271 l 745 475 l 686 543 l 212 543 l 309 746 l 851 746 l 909 678 l 987 746 l 1495 746 l 1640 576 l 1622 441 l 1428 271 l 1055 271 l 1084 475 l 1287 475 l 1326 509 l 1297 543 l 1093 543 l 1016 475 l 987 271 l 1046 203 l 1520 203 l 1424 0 l 882 0 l 823 68 l 746 0 l 237 0 l 92 170 z "},"ç":{"ha":1017,"x_min":92,"x_max":1025,"o":"m 1025 543 l 483 543 l 406 475 l 377 271 l 435 203 l 978 203 l 882 0 l 237 0 l 92 170 l 149 576 l 342 746 l 987 746 l 1025 543 m 262 -305 l 420 -102 l 698 -102 l 541 -305 l 262 -305 z "},"è":{"ha":1017,"x_min":92,"x_max":1030,"o":"m 1030 576 l 1011 441 l 818 271 l 445 271 l 473 475 l 677 475 l 715 509 l 686 543 l 483 543 l 406 475 l 377 271 l 435 203 l 910 203 l 814 0 l 237 0 l 92 170 l 149 576 l 342 746 l 885 746 l 1030 576 m 663 1051 l 764 848 l 486 848 l 385 1051 l 663 1051 z "},"é":{"ha":1017,"x_min":92,"x_max":1030,"o":"m 1030 576 l 1011 441 l 818 271 l 445 271 l 473 475 l 677 475 l 715 509 l 686 543 l 483 543 l 406 475 l 377 271 l 435 203 l 910 203 l 814 0 l 237 0 l 92 170 l 149 576 l 342 746 l 885 746 l 1030 576 m 928 1051 l 770 848 l 492 848 l 650 1051 l 928 1051 z "},"ê":{"ha":1017,"x_min":92,"x_max":1030,"o":"m 1030 576 l 1011 441 l 818 271 l 445 271 l 473 475 l 677 475 l 715 509 l 686 543 l 483 543 l 406 475 l 377 271 l 435 203 l 910 203 l 814 0 l 237 0 l 92 170 l 149 576 l 342 746 l 885 746 l 1030 576 m 876 1119 l 1001 848 l 709 848 l 647 983 l 547 848 l 255 848 l 463 1119 l 876 1119 z "},"ë":{"ha":1017,"x_min":92,"x_max":1030,"o":"m 1030 576 l 1011 441 l 818 271 l 445 271 l 473 475 l 677 475 l 715 509 l 686 543 l 483 543 l 406 475 l 377 271 l 435 203 l 910 203 l 814 0 l 237 0 l 92 170 l 149 576 l 342 746 l 885 746 l 1030 576 m 589 1051 l 560 848 l 289 848 l 317 1051 l 589 1051 m 996 1051 l 967 848 l 696 848 l 724 1051 l 996 1051 z "},"ì":{"ha":543,"x_min":203,"x_max":594,"o":"m 580 746 l 475 0 l 203 0 l 309 746 l 580 746 m 494 1051 l 594 848 l 316 848 l 216 1051 l 494 1051 z "},"í":{"ha":543,"x_min":68,"x_max":623,"o":"m 444 746 l 339 0 l 68 0 l 173 746 l 444 746 m 623 1051 l 465 848 l 187 848 l 345 1051 l 623 1051 z "},"î":{"ha":882,"x_min":187,"x_max":933,"o":"m 682 746 l 576 0 l 305 0 l 410 746 l 682 746 m 808 1119 l 933 848 l 642 848 l 579 983 l 479 848 l 187 848 l 395 1119 l 808 1119 z "},"ï":{"ha":814,"x_min":187,"x_max":894,"o":"m 648 746 l 543 0 l 271 0 l 376 746 l 648 746 m 487 1051 l 458 848 l 187 848 l 216 1051 l 487 1051 m 894 1051 l 865 848 l 594 848 l 623 1051 l 894 1051 z "},"ð":{"ha":1153,"x_min":92,"x_max":1204,"o":"m 92 170 l 130 441 l 323 610 l 696 610 l 667 407 l 464 407 l 387 339 l 377 271 l 435 203 l 639 203 l 716 271 l 774 678 l 503 678 l 526 848 l 798 848 l 812 949 l 1083 949 l 1069 848 l 1204 848 l 1181 678 l 1045 678 l 973 170 l 780 0 l 237 0 l 92 170 z "},"ñ":{"ha":1017,"x_min":68,"x_max":1030,"o":"m 406 475 l 339 0 l 68 0 l 149 576 l 342 746 l 885 746 l 1030 576 l 949 0 l 678 0 l 745 475 l 686 543 l 483 543 l 406 475 m 279 949 l 434 1085 l 651 1085 l 727 997 l 808 997 l 831 1017 l 841 1085 l 1024 1085 l 1010 983 l 855 848 l 640 848 l 637 845 l 562 936 l 481 936 l 458 916 l 448 848 l 265 848 l 279 949 z "},"ò":{"ha":1017,"x_min":92,"x_max":1030,"o":"m 1030 576 l 973 170 l 780 0 l 237 0 l 92 170 l 149 576 l 342 746 l 885 746 l 1030 576 m 406 475 l 377 271 l 435 203 l 639 203 l 716 271 l 745 475 l 686 543 l 483 543 l 406 475 m 663 1051 l 764 848 l 486 848 l 385 1051 l 663 1051 z "},"ó":{"ha":1017,"x_min":92,"x_max":1030,"o":"m 1030 576 l 973 170 l 780 0 l 237 0 l 92 170 l 149 576 l 342 746 l 885 746 l 1030 576 m 406 475 l 377 271 l 435 203 l 639 203 l 716 271 l 745 475 l 686 543 l 483 543 l 406 475 m 928 1051 l 770 848 l 492 848 l 650 1051 l 928 1051 z "},"ô":{"ha":1017,"x_min":92,"x_max":1030,"o":"m 1030 576 l 973 170 l 780 0 l 237 0 l 92 170 l 149 576 l 342 746 l 885 746 l 1030 576 m 406 475 l 377 271 l 435 203 l 639 203 l 716 271 l 745 475 l 686 543 l 483 543 l 406 475 m 876 1119 l 1001 848 l 709 848 l 647 983 l 547 848 l 255 848 l 463 1119 l 876 1119 z "},"õ":{"ha":1017,"x_min":92,"x_max":1030,"o":"m 1030 576 l 973 170 l 780 0 l 237 0 l 92 170 l 149 576 l 342 746 l 885 746 l 1030 576 m 406 475 l 377 271 l 435 203 l 639 203 l 716 271 l 745 475 l 686 543 l 483 543 l 406 475 m 279 949 l 434 1085 l 651 1085 l 727 997 l 808 997 l 831 1017 l 841 1085 l 1024 1085 l 1010 983 l 855 848 l 640 848 l 637 845 l 562 936 l 481 936 l 458 916 l 448 848 l 265 848 l 279 949 z "},"ö":{"ha":1017,"x_min":92,"x_max":1030,"o":"m 1030 576 l 973 170 l 780 0 l 237 0 l 92 170 l 149 576 l 342 746 l 885 746 l 1030 576 m 406 475 l 377 271 l 435 203 l 639 203 l 716 271 l 745 475 l 686 543 l 483 543 l 406 475 m 589 1051 l 560 848 l 289 848 l 317 1051 l 589 1051 m 996 1051 l 967 848 l 696 848 l 724 1051 l 996 1051 z "},"÷":{"ha":882,"x_min":120,"x_max":895,"o":"m 149 576 l 895 576 l 866 373 l 120 373 l 149 576 m 610 237 l 581 34 l 310 34 l 338 237 l 610 237 m 705 916 l 677 712 l 406 712 l 434 916 l 705 916 z "},"ø":{"ha":1017,"x_min":92,"x_max":1030,"o":"m 1030 576 l 973 170 l 780 0 l 237 0 l 92 170 l 149 576 l 342 746 l 885 746 l 1030 576 m 639 203 l 716 271 l 739 422 l 483 203 l 639 203 m 406 475 l 387 339 l 389 336 l 625 543 l 483 543 l 406 475 z "},"ù":{"ha":1017,"x_min":92,"x_max":1055,"o":"m 92 170 l 173 746 l 444 746 l 377 271 l 435 203 l 639 203 l 716 271 l 783 746 l 1055 746 l 973 170 l 780 0 l 237 0 l 92 170 m 663 1051 l 764 848 l 486 848 l 385 1051 l 663 1051 z "},"ú":{"ha":1017,"x_min":92,"x_max":1055,"o":"m 92 170 l 173 746 l 444 746 l 377 271 l 435 203 l 639 203 l 716 271 l 783 746 l 1055 746 l 973 170 l 780 0 l 237 0 l 92 170 m 928 1051 l 770 848 l 492 848 l 650 1051 l 928 1051 z "},"û":{"ha":1017,"x_min":92,"x_max":1055,"o":"m 92 170 l 173 746 l 444 746 l 377 271 l 435 203 l 639 203 l 716 271 l 783 746 l 1055 746 l 973 170 l 780 0 l 237 0 l 92 170 m 876 1119 l 1001 848 l 709 848 l 647 983 l 547 848 l 255 848 l 463 1119 l 876 1119 z "},"ü":{"ha":1017,"x_min":92,"x_max":1055,"o":"m 92 170 l 173 746 l 444 746 l 377 271 l 435 203 l 639 203 l 716 271 l 783 746 l 1055 746 l 973 170 l 780 0 l 237 0 l 92 170 m 589 1051 l 560 848 l 289 848 l 317 1051 l 589 1051 m 996 1051 l 967 848 l 696 848 l 724 1051 l 996 1051 z "},"ý":{"ha":1017,"x_min":130,"x_max":1055,"o":"m 973 170 l 780 0 l 203 0 l 164 203 l 639 203 l 716 271 l 275 271 l 130 441 l 173 746 l 444 746 l 415 543 l 473 475 l 745 475 l 783 746 l 1055 746 l 973 170 m 928 1051 l 770 848 l 492 848 l 650 1051 l 928 1051 z "},"þ":{"ha":1017,"x_min":68,"x_max":1030,"o":"m 201 949 l 473 949 l 444 746 l 885 746 l 1030 576 l 992 305 l 799 136 l 426 136 l 454 339 l 658 339 l 735 407 l 745 475 l 686 543 l 415 543 l 339 0 l 68 0 l 201 949 z "},"ÿ":{"ha":1017,"x_min":130,"x_max":1055,"o":"m 973 170 l 780 0 l 203 0 l 164 203 l 639 203 l 716 271 l 275 271 l 130 441 l 173 746 l 444 746 l 415 543 l 473 475 l 745 475 l 783 746 l 1055 746 l 973 170 m 589 1051 l 560 848 l 289 848 l 317 1051 l 589 1051 m 996 1051 l 967 848 l 696 848 l 724 1051 l 996 1051 z "},"Č":{"ha":1153,"x_min":92,"x_max":1190,"o":"m 377 271 l 435 203 l 1114 203 l 1017 0 l 237 0 l 92 170 l 178 780 l 371 949 l 1151 949 l 1190 746 l 512 746 l 435 678 l 377 271 m 514 1051 l 389 1322 l 681 1322 l 743 1187 l 844 1322 l 1135 1322 l 928 1051 l 514 1051 z "},"č":{"ha":1017,"x_min":92,"x_max":1039,"o":"m 1025 543 l 483 543 l 406 475 l 377 271 l 435 203 l 978 203 l 882 0 l 237 0 l 92 170 l 149 576 l 342 746 l 987 746 l 1025 543 m 418 848 l 293 1119 l 585 1119 l 647 983 l 747 1119 l 1039 1119 l 831 848 l 418 848 z "},"Ď":{"ha":1153,"x_min":68,"x_max":1195,"o":"m 201 949 l 1049 949 l 1195 780 l 1109 170 l 916 0 l 68 0 l 201 949 m 444 746 l 369 210 l 776 210 l 853 278 l 909 678 l 851 746 l 444 746 m 514 1051 l 389 1322 l 681 1322 l 743 1187 l 844 1322 l 1135 1322 l 928 1051 l 514 1051 z "},"ď":{"ha":1424,"x_min":92,"x_max":1490,"o":"m 92 170 l 149 576 l 342 746 l 715 746 l 686 543 l 483 543 l 406 475 l 377 271 l 435 203 l 639 203 l 716 271 l 812 949 l 1083 949 l 973 170 l 780 0 l 237 0 l 92 170 m 1490 949 l 1447 644 l 1171 610 l 1219 949 l 1490 949 z "},"Ě":{"ha":1153,"x_min":92,"x_max":1190,"o":"m 1166 576 l 1137 373 l 391 373 l 377 271 l 435 203 l 1114 203 l 1017 0 l 237 0 l 92 170 l 178 780 l 371 949 l 1151 949 l 1190 746 l 512 746 l 435 678 l 420 576 l 1166 576 m 514 1051 l 389 1322 l 681 1322 l 743 1187 l 844 1322 l 1135 1322 l 928 1051 l 514 1051 z "},"ě":{"ha":1017,"x_min":92,"x_max":1039,"o":"m 1030 576 l 1011 441 l 818 271 l 445 271 l 473 475 l 677 475 l 715 509 l 686 543 l 483 543 l 406 475 l 377 271 l 435 203 l 910 203 l 814 0 l 237 0 l 92 170 l 149 576 l 342 746 l 885 746 l 1030 576 m 418 848 l 293 1119 l 585 1119 l 647 983 l 747 1119 l 1039 1119 l 831 848 l 418 848 z "},"ı":{"ha":407,"x_min":68,"x_max":444,"o":"m 444 746 l 339 0 l 68 0 l 173 746 l 444 746 z "},"Ň":{"ha":1153,"x_min":68,"x_max":1195,"o":"m 512 746 l 435 678 l 339 0 l 68 0 l 178 780 l 371 949 l 1049 949 l 1195 780 l 1085 0 l 814 0 l 909 678 l 851 746 l 512 746 m 514 1051 l 389 1322 l 681 1322 l 743 1187 l 844 1322 l 1135 1322 l 928 1051 l 514 1051 z "},"ň":{"ha":1017,"x_min":68,"x_max":1039,"o":"m 406 475 l 339 0 l 68 0 l 149 576 l 342 746 l 885 746 l 1030 576 l 949 0 l 678 0 l 745 475 l 686 543 l 483 543 l 406 475 m 418 848 l 293 1119 l 585 1119 l 647 983 l 747 1119 l 1039 1119 l 831 848 l 418 848 z "},"Œ":{"ha":1899,"x_min":92,"x_max":1936,"o":"m 178 780 l 371 949 l 981 949 l 1069 848 l 1185 949 l 1897 949 l 1936 746 l 1258 746 l 1181 678 l 1166 576 l 1912 576 l 1883 373 l 1137 373 l 1123 271 l 1181 203 l 1860 203 l 1763 0 l 1051 0 l 964 102 l 848 0 l 237 0 l 92 170 l 178 780 m 512 746 l 435 678 l 377 271 l 435 203 l 774 203 l 852 271 l 909 678 l 851 746 l 512 746 z "},"œ":{"ha":1628,"x_min":92,"x_max":1640,"o":"m 905 644 l 1021 746 l 1495 746 l 1640 576 l 1622 441 l 1428 271 l 1055 271 l 1084 475 l 1287 475 l 1326 509 l 1297 543 l 1093 543 l 1016 475 l 987 271 l 1046 203 l 1520 203 l 1424 0 l 916 0 l 828 102 l 712 0 l 237 0 l 92 170 l 149 576 l 342 746 l 817 746 l 905 644 m 406 475 l 377 271 l 435 203 l 639 203 l 716 271 l 745 475 l 686 543 l 483 543 l 406 475 z "},"Ř":{"ha":1153,"x_min":68,"x_max":1195,"o":"m 1049 949 l 1195 780 l 1156 509 l 1040 407 l 1128 305 l 1085 0 l 814 0 l 847 237 l 789 305 l 450 305 l 478 509 l 817 509 l 895 576 l 909 678 l 851 746 l 444 746 l 339 0 l 68 0 l 201 949 l 1049 949 m 514 1051 l 389 1322 l 681 1322 l 743 1187 l 844 1322 l 1135 1322 l 928 1051 l 514 1051 z "},"ř":{"ha":882,"x_min":102,"x_max":971,"o":"m 856 543 l 517 543 l 439 475 l 373 0 l 102 0 l 182 576 l 376 746 l 817 746 l 856 543 m 350 848 l 225 1119 l 517 1119 l 579 983 l 680 1119 l 971 1119 l 764 848 l 350 848 z "},"Š":{"ha":1153,"x_min":96,"x_max":1190,"o":"m 136 0 l 96 203 l 774 203 l 852 271 l 857 305 l 798 373 l 290 373 l 144 543 l 178 780 l 371 949 l 1151 949 l 1190 746 l 512 746 l 435 678 l 430 644 l 488 576 l 996 576 l 1142 407 l 1109 170 l 916 0 l 136 0 m 514 1051 l 389 1322 l 681 1322 l 743 1187 l 844 1322 l 1135 1322 l 928 1051 l 514 1051 z "},"š":{"ha":1017,"x_min":96,"x_max":1039,"o":"m 846 475 l 992 305 l 973 170 l 780 0 l 136 0 l 96 203 l 639 203 l 677 237 l 648 271 l 275 271 l 130 441 l 149 576 l 342 746 l 987 746 l 1025 543 l 483 543 l 444 509 l 473 475 l 846 475 m 418 848 l 293 1119 l 585 1119 l 647 983 l 747 1119 l 1039 1119 l 831 848 l 418 848 z "},"Ť":{"ha":1153,"x_min":173,"x_max":1219,"o":"m 1219 949 l 1190 746 l 817 746 l 712 0 l 441 0 l 546 746 l 173 746 l 201 949 l 1219 949 m 514 1051 l 389 1322 l 681 1322 l 743 1187 l 844 1322 l 1135 1322 l 928 1051 l 514 1051 z "},"ť":{"ha":1221,"x_min":144,"x_max":1286,"o":"m 309 746 l 328 882 l 608 949 l 580 746 l 851 746 l 822 543 l 551 543 l 513 271 l 571 203 l 774 203 l 678 0 l 373 0 l 227 170 l 279 543 l 144 543 l 173 746 l 309 746 m 1286 949 l 1244 644 l 967 610 l 1015 949 l 1286 949 z "},"Ů":{"ha":1153,"x_min":92,"x_max":1219,"o":"m 774 203 l 852 271 l 947 949 l 1219 949 l 1109 170 l 916 0 l 237 0 l 92 170 l 201 949 l 473 949 l 377 271 l 435 203 l 774 203 m 890 1390 l 978 1289 l 959 1153 l 843 1051 l 606 1051 l 518 1153 l 537 1289 l 653 1390 l 890 1390 m 699 1238 l 694 1204 l 724 1170 l 758 1170 l 796 1204 l 801 1238 l 772 1272 l 739 1272 l 699 1238 z "},"ů":{"ha":1017,"x_min":92,"x_max":1055,"o":"m 92 170 l 173 746 l 444 746 l 377 271 l 435 203 l 639 203 l 716 271 l 783 746 l 1055 746 l 973 170 l 780 0 l 237 0 l 92 170 m 794 1187 l 882 1085 l 863 949 l 747 848 l 509 848 l 422 949 l 441 1085 l 557 1187 l 794 1187 m 603 1034 l 598 1000 l 627 966 l 661 966 l 700 1000 l 705 1034 l 675 1068 l 642 1068 l 603 1034 z "},"Ÿ":{"ha":1153,"x_min":139,"x_max":1219,"o":"m 201 949 l 473 949 l 427 624 l 616 522 l 684 522 l 901 624 l 947 949 l 1219 949 l 1156 509 l 757 319 l 712 0 l 441 0 l 486 319 l 139 509 l 201 949 m 685 1255 l 656 1051 l 385 1051 l 414 1255 l 685 1255 m 1092 1255 l 1063 1051 l 792 1051 l 821 1255 l 1092 1255 z "},"Ž":{"ha":1153,"x_min":68,"x_max":1219,"o":"m 68 0 l 96 203 l 817 746 l 173 746 l 201 949 l 1219 949 l 1190 746 l 469 203 l 1114 203 l 1085 0 l 68 0 m 514 1051 l 389 1322 l 681 1322 l 743 1187 l 844 1322 l 1135 1322 l 928 1051 l 514 1051 z "},"ž":{"ha":1017,"x_min":68,"x_max":1055,"o":"m 68 0 l 96 203 l 632 543 l 144 543 l 173 746 l 1055 746 l 1025 543 l 490 203 l 978 203 l 949 0 l 68 0 m 418 848 l 293 1119 l 585 1119 l 647 983 l 747 1119 l 1039 1119 l 831 848 l 418 848 z "},"ƒ":{"ha":949,"x_min":96,"x_max":987,"o":"m 96 203 l 300 203 l 377 271 l 406 475 l 270 475 l 299 678 l 435 678 l 449 780 l 642 949 l 947 949 l 987 746 l 783 746 l 706 678 l 977 678 l 948 475 l 677 475 l 634 170 l 441 0 l 136 0 l 96 203 z "},"ˆ":{"ha":882,"x_min":187,"x_max":933,"o":"m 808 1119 l 933 848 l 642 848 l 579 983 l 479 848 l 187 848 l 395 1119 l 808 1119 z "},"ˇ":{"ha":882,"x_min":225,"x_max":971,"o":"m 350 848 l 225 1119 l 517 1119 l 579 983 l 680 1119 l 971 1119 l 764 848 l 350 848 z "},"˘":{"ha":780,"x_min":201,"x_max":874,"o":"m 230 1153 l 467 1153 l 453 1051 l 482 1017 l 584 1017 l 623 1051 l 637 1153 l 874 1153 l 846 949 l 730 848 l 289 848 l 201 949 l 230 1153 z "},"˙":{"ha":407,"x_min":187,"x_max":487,"o":"m 487 1051 l 458 848 l 187 848 l 216 1051 l 487 1051 z "},"˚":{"ha":576,"x_min":201,"x_max":661,"o":"m 574 1187 l 661 1085 l 642 949 l 526 848 l 289 848 l 201 949 l 220 1085 l 336 1187 l 574 1187 m 382 1034 l 378 1000 l 407 966 l 441 966 l 479 1000 l 484 1034 l 455 1068 l 421 1068 l 382 1034 z "},"˛":{"ha":543,"x_min":54,"x_max":432,"o":"m 154 -305 l 54 -102 l 332 -102 l 432 -305 l 154 -305 z "},"˜":{"ha":861,"x_min":187,"x_max":946,"o":"m 201 949 l 356 1085 l 573 1085 l 649 997 l 730 997 l 753 1017 l 763 1085 l 946 1085 l 932 983 l 777 848 l 562 848 l 559 845 l 484 936 l 403 936 l 380 916 l 370 848 l 187 848 l 201 949 z "},"˝":{"ha":949,"x_min":187,"x_max":1029,"o":"m 623 1051 l 465 848 l 187 848 l 345 1051 l 623 1051 m 1029 1051 l 872 848 l 594 848 l 751 1051 l 1029 1051 z "},"–":{"ha":746,"x_min":120,"x_max":759,"o":"m 149 576 l 759 576 l 730 373 l 120 373 l 149 576 z "},"—":{"ha":1017,"x_min":120,"x_max":1030,"o":"m 149 576 l 1030 576 l 1002 373 l 120 373 l 149 576 z "},"‘":{"ha":407,"x_min":159,"x_max":473,"o":"m 473 949 l 425 610 l 159 644 l 201 949 l 473 949 z "},"’":{"ha":407,"x_min":153,"x_max":473,"o":"m 473 949 l 430 644 l 153 610 l 201 949 l 473 949 z "},"‚":{"ha":407,"x_min":39,"x_max":358,"o":"m 358 136 l 315 -170 l 39 -203 l 87 136 l 358 136 z "},"“":{"ha":814,"x_min":159,"x_max":880,"o":"m 880 949 l 831 610 l 566 644 l 608 949 l 880 949 m 473 949 l 425 610 l 159 644 l 201 949 l 473 949 z "},"”":{"ha":814,"x_min":153,"x_max":880,"o":"m 473 949 l 430 644 l 153 610 l 201 949 l 473 949 m 880 949 l 837 644 l 560 610 l 608 949 l 880 949 z "},"„":{"ha":814,"x_min":39,"x_max":765,"o":"m 358 136 l 315 -170 l 39 -203 l 87 136 l 358 136 m 765 136 l 722 -170 l 446 -203 l 494 136 l 765 136 z "},"†":{"ha":882,"x_min":144,"x_max":919,"o":"m 710 949 l 682 746 l 919 746 l 890 543 l 652 543 l 576 0 l 305 0 l 381 543 l 144 543 l 173 746 l 410 746 l 439 949 l 710 949 z "},"‡":{"ha":882,"x_min":96,"x_max":919,"o":"m 710 949 l 682 746 l 919 746 l 890 543 l 652 543 l 633 407 l 871 407 l 842 203 l 605 203 l 576 0 l 305 0 l 334 203 l 96 203 l 125 407 l 362 407 l 381 543 l 144 543 l 173 746 l 410 746 l 439 949 l 710 949 z "},"•":{"ha":407,"x_min":115,"x_max":425,"o":"m 115 339 l 153 610 l 425 610 l 387 339 l 115 339 z "},"…":{"ha":1221,"x_min":68,"x_max":1181,"o":"m 368 203 l 339 0 l 68 0 l 96 203 l 368 203 m 774 203 l 746 0 l 475 0 l 503 203 l 774 203 m 1181 203 l 1153 0 l 882 0 l 910 203 l 1181 203 z "},"‰":{"ha":2035,"x_min":149,"x_max":2019,"o":"m 371 949 l 574 949 l 720 780 l 691 576 l 498 407 l 294 407 l 149 576 l 178 780 l 371 949 m 1059 543 l 1263 543 l 1409 373 l 1380 170 l 1187 0 l 983 0 l 838 170 l 866 373 l 1059 543 m 203 0 l 1083 949 l 1354 949 l 475 0 l 203 0 m 1103 373 l 1026 305 l 1017 237 l 1075 170 l 1143 170 l 1220 237 l 1230 305 l 1171 373 l 1103 373 m 415 780 l 338 712 l 328 644 l 386 576 l 454 576 l 532 644 l 541 712 l 483 780 l 415 780 m 1670 543 l 1873 543 l 2019 373 l 1990 170 l 1797 0 l 1594 0 l 1448 170 l 1476 373 l 1670 543 m 1714 373 l 1636 305 l 1627 237 l 1685 170 l 1753 170 l 1830 237 l 1840 305 l 1782 373 l 1714 373 z "},"‹":{"ha":475,"x_min":125,"x_max":531,"o":"m 531 882 l 488 576 l 372 475 l 459 373 l 416 68 l 125 407 l 144 543 l 531 882 z "},"›":{"ha":475,"x_min":77,"x_max":483,"o":"m 77 68 l 120 373 l 236 475 l 149 576 l 192 882 l 483 543 l 464 407 l 77 68 z "},"€":{"ha":1153,"x_min":106,"x_max":1190,"o":"m 299 678 l 313 780 l 507 949 l 1151 949 l 1190 746 l 648 746 l 570 678 l 976 678 l 907 509 l 546 509 l 536 441 l 880 441 l 812 271 l 513 271 l 571 203 l 1114 203 l 1017 0 l 373 0 l 227 170 l 241 271 l 106 271 l 130 441 l 265 441 l 275 509 l 139 509 l 163 678 l 299 678 z "},"™":{"ha":1560,"x_min":179,"x_max":1611,"o":"m 1060 475 l 1106 800 l 1008 800 l 969 766 l 928 475 l 745 475 l 798 848 l 913 949 l 1524 949 l 1611 848 l 1558 475 l 1382 475 l 1422 760 l 1388 800 l 1289 800 l 1243 475 l 1060 475 m 314 475 l 359 793 l 179 793 l 201 949 l 744 949 l 722 793 l 542 793 l 497 475 l 314 475 z "}}}
